<svg width="574" height="112" viewBox="0 0 574 112" fill="none" xmlns="http://www.w3.org/2000/svg">
<path d="M566.115 87.8256C563.851 87.8256 561.95 87.0574 560.414 85.5208C558.958 83.9034 558.23 82.003 558.23 79.8195C558.23 77.5551 558.958 75.6951 560.414 74.2394C561.95 72.7028 563.851 71.9346 566.115 71.9346C568.379 71.9346 570.239 72.7028 571.695 74.2394C573.232 75.6951 574 77.5551 574 79.8195C574 82.003 573.232 83.9034 571.695 85.5208C570.239 87.0574 568.379 87.8256 566.115 87.8256Z" fill="#FE6239"/>
<path d="M526.675 87.8248C520.933 87.8248 515.757 86.5308 511.147 83.943C506.538 81.2742 502.899 77.6755 500.23 73.1467C497.561 68.618 496.227 63.4827 496.227 57.7409C496.227 52.0799 497.521 46.9851 500.109 42.4563C502.777 37.9276 506.336 34.3693 510.784 31.7814C515.312 29.1127 520.367 27.7783 525.947 27.7783C531.284 27.7783 535.975 28.9914 540.018 31.4175C544.143 33.8436 547.337 37.1997 549.601 41.4859C551.947 45.772 553.119 50.6243 553.119 56.0426C553.119 56.8513 553.079 57.7409 552.998 58.7113C552.917 59.6009 552.755 60.6522 552.513 61.8653H503.869V52.7673H546.69L542.687 56.2852C542.687 52.4034 542 49.1282 540.625 46.4594C539.25 43.7098 537.309 41.6072 534.802 40.1515C532.295 38.615 529.262 37.8467 525.704 37.8467C521.984 37.8467 518.709 38.6554 515.878 40.2728C513.048 41.8902 510.864 44.1546 509.328 47.066C507.791 49.9773 507.023 53.4143 507.023 57.377C507.023 61.4205 507.832 64.9788 509.449 68.0519C511.067 71.0441 513.371 73.3893 516.364 75.0876C519.356 76.705 522.793 77.5137 526.675 77.5137C529.909 77.5137 532.861 76.9477 535.53 75.8155C538.28 74.6833 540.625 72.985 542.566 70.7206L549.601 77.8777C546.852 81.1125 543.455 83.579 539.412 85.2773C535.449 86.9756 531.203 87.8248 526.675 87.8248Z" fill="#FE6239"/>
<path d="M469.1 87.8256C464.409 87.8256 460.164 86.7742 456.363 84.6716C452.643 82.4881 449.731 79.4959 447.629 75.695C445.526 71.8941 444.475 67.4866 444.475 62.4726V28.9922H455.392V61.9874C455.392 65.1414 455.918 67.891 456.969 70.2362C458.102 72.5006 459.719 74.2393 461.822 75.4524C463.924 76.6654 466.391 77.2719 469.221 77.2719C473.507 77.2719 476.864 75.9376 479.29 73.2689C481.716 70.5193 482.929 66.7588 482.929 61.9874V28.9922H493.846V62.4726C493.846 67.4866 492.795 71.8941 490.692 75.695C488.59 79.4959 485.678 82.4881 481.958 84.6716C478.319 86.7742 474.033 87.8256 469.1 87.8256Z" fill="#FE6239"/>
<path d="M428.723 86.6124V53.0107C428.723 48.6437 427.348 45.0449 424.599 42.2145C421.849 39.384 418.291 37.9688 413.924 37.9688C411.012 37.9688 408.425 38.6157 406.16 39.9097C403.896 41.2036 402.117 42.9827 400.823 45.2471C399.529 47.5115 398.882 50.0993 398.882 53.0107L394.394 50.4633C394.394 46.0963 395.364 42.2145 397.305 38.8179C399.246 35.4213 401.955 32.7526 405.432 30.8117C408.91 28.7899 412.832 27.7791 417.199 27.7791C421.566 27.7791 425.407 28.7495 428.723 30.6904C432.12 32.6313 434.788 35.3405 436.729 38.8179C438.67 42.2953 439.641 46.2984 439.641 50.8272V86.6124H428.723ZM387.964 86.6124V0H398.882V86.6124H387.964Z" fill="#FE6239"/>
<path d="M380.934 86.6133L340.66 45.9758C337.102 42.4175 334.474 38.9401 332.776 35.5435C331.158 32.147 330.349 28.5887 330.349 24.8686C330.349 20.5825 331.239 16.8624 333.018 13.7085C334.878 10.4736 337.466 7.96665 340.782 6.1875C344.097 4.32747 347.898 3.39746 352.184 3.39746C355.015 3.39746 357.643 3.80181 360.069 4.61052C362.495 5.41923 364.679 6.59185 366.62 8.1284C368.642 9.58407 370.34 11.4441 371.715 13.7085L368.925 16.4985C366.903 13.4254 364.477 11.1206 361.646 9.58406C358.897 7.96665 355.783 7.15795 352.306 7.15795C346.887 7.15795 342.52 8.81579 339.205 12.1315C335.889 15.3663 334.231 19.7333 334.231 25.2325C334.231 28.5482 334.959 31.6213 336.415 34.4518C337.87 37.2823 340.418 40.5171 344.057 44.1563L386.393 86.6133H380.934ZM347.332 87.8264C342.48 87.8264 338.153 86.8155 334.352 84.7937C330.552 82.6911 327.559 79.8606 325.376 76.3023C323.192 72.744 322.101 68.6601 322.101 64.0504C322.101 58.8747 323.475 54.1033 326.225 49.7363C328.975 45.2884 332.614 41.9727 337.143 39.7892L339.447 42.458C335.485 44.2371 332.25 47.1485 329.743 51.192C327.236 55.1547 325.982 59.4408 325.982 64.0504C325.982 67.9322 326.912 71.4097 328.772 74.4827C330.632 77.475 333.18 79.8606 336.415 81.6398C339.65 83.3381 343.329 84.1872 347.454 84.1872C351.982 84.1872 356.188 83.1359 360.069 81.0333C363.951 78.8498 366.903 75.898 368.925 72.1779L371.472 74.7254C369.936 77.3941 367.914 79.7393 365.407 81.7611C362.981 83.702 360.231 85.1981 357.158 86.2494C354.085 87.3007 350.81 87.8264 347.332 87.8264Z" fill="#FE6239"/>
<path d="M278.073 86.6117V28.9914H288.99V86.6117H278.073ZM288.99 53.7378L284.866 51.9182C284.866 44.559 286.564 38.6959 289.96 34.3288C293.357 29.9618 298.25 27.7783 304.639 27.7783C307.55 27.7783 310.178 28.304 312.523 29.3553C314.869 30.3257 317.052 31.9836 319.074 34.3288L311.917 41.7285C310.704 40.4346 309.369 39.5046 307.914 38.9385C306.458 38.3724 304.76 38.0893 302.819 38.0893C298.775 38.0893 295.46 39.3833 292.872 41.9711C290.284 44.559 288.99 48.4812 288.99 53.7378Z" fill="#FE6239"/>
<path d="M248.216 87.8248C242.474 87.8248 237.298 86.5308 232.689 83.943C228.079 81.2742 224.44 77.6755 221.771 73.1467C219.102 68.618 217.768 63.4827 217.768 57.7409C217.768 52.0799 219.062 46.9851 221.65 42.4563C224.319 37.9276 227.877 34.3693 232.325 31.7814C236.854 29.1127 241.908 27.7783 247.488 27.7783C252.825 27.7783 257.516 28.9914 261.56 31.4175C265.684 33.8436 268.878 37.1997 271.143 41.4859C273.488 45.772 274.661 50.6243 274.661 56.0426C274.661 56.8513 274.62 57.7409 274.539 58.7113C274.458 59.6009 274.297 60.6522 274.054 61.8653H225.41V52.7673H268.231L264.228 56.2852C264.228 52.4034 263.541 49.1282 262.166 46.4594C260.791 43.7098 258.85 41.6072 256.343 40.1515C253.836 38.615 250.804 37.8467 247.245 37.8467C243.525 37.8467 240.25 38.6554 237.42 40.2728C234.589 41.8902 232.406 44.1546 230.869 47.066C229.333 49.9773 228.564 53.4143 228.564 57.377C228.564 61.4205 229.373 64.9788 230.99 68.0519C232.608 71.0441 234.913 73.3893 237.905 75.0876C240.897 76.705 244.334 77.5137 248.216 77.5137C251.451 77.5137 254.402 76.9477 257.071 75.8155C259.821 74.6833 262.166 72.985 264.107 70.7206L271.143 77.8777C268.393 81.1125 264.997 83.579 260.953 85.2773C256.99 86.9756 252.745 87.8248 248.216 87.8248Z" fill="#FE6239"/>
<path d="M204.322 86.6124V53.0107C204.322 48.6437 202.947 45.0449 200.197 42.2145C197.448 39.384 193.889 37.9688 189.522 37.9688C186.611 37.9688 184.023 38.6157 181.759 39.9097C179.494 41.2036 177.715 42.9827 176.421 45.2471C175.127 47.5115 174.481 50.0993 174.481 53.0107L169.992 50.4633C169.992 46.0963 170.963 42.2145 172.904 38.8179C174.844 35.4213 177.554 32.7526 181.031 30.8117C184.508 28.7899 188.431 27.7791 192.798 27.7791C197.165 27.7791 201.006 28.7495 204.322 30.6904C207.718 32.6313 210.387 35.3405 212.328 38.8179C214.269 42.2953 215.239 46.2984 215.239 50.8272V86.6124H204.322ZM163.563 86.6124V0H174.481V86.6124H163.563Z" fill="#FE6239"/>
<path d="M136.249 86.6127V4.85254H147.166V86.6127H136.249ZM122.056 38.9395V28.9924H161.359V38.9395H122.056Z" fill="#FE6239"/>
<path d="M90.0205 87.8248C84.7639 87.8248 79.9926 86.5308 75.7064 83.943C71.4203 81.2742 68.0237 77.6755 65.5167 73.1467C63.0906 68.618 61.8776 63.5231 61.8776 57.8622C61.8776 52.2012 63.0906 47.1064 65.5167 42.5776C68.0237 38.0489 71.3799 34.4501 75.5851 31.7814C79.8713 29.1127 84.6831 27.7783 90.0205 27.7783C94.3875 27.7783 98.2693 28.7083 101.666 30.5684C105.143 32.3475 107.933 34.8545 110.036 38.0893C112.139 41.2433 113.311 44.9229 113.554 49.1282V66.4749C113.311 70.5993 112.139 74.2789 110.036 77.5137C108.014 80.7486 105.265 83.296 101.787 85.156C98.3906 86.9352 94.4684 87.8248 90.0205 87.8248ZM91.8401 77.5137C97.2585 77.5137 101.625 75.6942 104.941 72.055C108.257 68.3349 109.915 63.604 109.915 57.8622C109.915 53.8995 109.146 50.4625 107.61 47.5512C106.154 44.559 104.052 42.2542 101.302 40.6367C98.5524 38.9385 95.358 38.0893 91.7188 38.0893C88.0796 38.0893 84.8448 38.9385 82.0143 40.6367C79.2647 42.335 77.0812 44.6803 75.4638 47.6725C73.9273 50.5838 73.159 53.94 73.159 57.7409C73.159 61.6227 73.9273 65.0597 75.4638 68.0519C77.0812 70.9632 79.3052 73.268 82.1357 74.9663C84.9661 76.6646 88.201 77.5137 91.8401 77.5137ZM109.187 86.6117V71.0845L111.249 57.0131L109.187 43.0629V28.9914H120.226V86.6117H109.187Z" fill="#FE6239"/>
<path d="M27.6577 111.965C21.7542 111.965 16.4976 110.873 11.888 108.689C7.35923 106.506 3.72005 103.433 0.970447 99.4701L8.00619 92.3131C10.3514 95.3053 13.1415 97.5697 16.3763 99.1062C19.6111 100.724 23.4525 101.532 27.9004 101.532C33.8039 101.532 38.454 99.9553 41.8505 96.8014C45.328 93.7283 47.0667 89.5635 47.0667 84.3069V69.9928L49.0076 57.0131L47.0667 44.1546V28.9914H57.9842V84.3069C57.9842 89.8061 56.6903 94.6179 54.1024 98.7423C51.5954 102.867 48.0371 106.102 43.4275 108.447C38.8988 110.792 33.6422 111.965 27.6577 111.965ZM27.6577 85.6412C22.4012 85.6412 17.6702 84.3877 13.465 81.8808C9.34056 79.3738 6.0653 75.9368 3.63918 71.5698C1.21306 67.1219 0 62.1483 0 56.6491C0 51.1499 1.21306 46.2573 3.63918 41.9711C6.0653 37.6041 9.34056 34.1671 13.465 31.6601C17.6702 29.0723 22.4012 27.7783 27.6577 27.7783C32.1865 27.7783 36.1896 28.6679 39.667 30.447C43.1445 32.2262 45.8941 34.7332 47.9158 37.968C50.0185 41.122 51.1507 44.842 51.3124 49.1282V64.4127C51.0698 68.618 49.8972 72.338 47.7945 75.5728C45.7728 78.7268 43.0232 81.1934 39.5457 82.9725C36.0683 84.7517 32.1056 85.6412 27.6577 85.6412ZM29.8413 75.3302C33.3996 75.3302 36.5131 74.562 39.1818 73.0254C41.9314 71.4889 44.034 69.3458 45.4897 66.5962C46.9454 63.7657 47.6732 60.4905 47.6732 56.7704C47.6732 53.0504 46.905 49.8156 45.3684 47.066C43.9127 44.2355 41.8505 42.052 39.1818 40.5154C36.5131 38.898 33.3591 38.0893 29.7199 38.0893C26.0808 38.0893 22.8864 38.898 20.1368 40.5154C17.3872 42.052 15.2037 44.2355 13.5863 47.066C12.0497 49.8156 11.2815 53.0099 11.2815 56.6491C11.2815 60.2883 12.0497 63.5231 13.5863 66.3536C15.2037 69.1841 17.3872 71.408 20.1368 73.0254C22.9673 74.562 26.2021 75.3302 29.8413 75.3302Z" fill="#FE6239"/>
</svg>
